<svg width="300" height="160" viewBox="0 0 300 160" fill="none" xmlns="http://www.w3.org/2000/svg">
<path d="M244.818 31.2008L281.052 11.1326C281.793 10.8108 282.458 10.338 283.006 9.74457C283.553 9.15111 283.971 8.44995 284.232 7.68589C284.494 6.92184 284.593 6.11168 284.523 5.30717C284.454 4.50266 284.217 3.72148 283.829 3.01353C283.44 2.30559 282.909 1.68645 282.267 1.19565C281.626 0.70485 280.889 0.35319 280.105 0.16313C279.32 -0.0269288 278.504 -0.0512087 277.709 0.0918416C276.915 0.234892 276.158 0.542128 275.489 0.993923L275.245 1.1449L239.243 21.0738L244.818 31.2008Z" fill="white"/>
<path d="M282.295 13.9081L246.292 33.8254L251.89 43.964L288.171 23.8958C289.408 23.0976 290.295 21.8595 290.654 20.4319C291.013 19.0042 290.816 17.4936 290.103 16.2056C289.391 14.9176 288.216 13.9483 286.815 13.4937C285.415 13.0392 283.895 13.1333 282.562 13.7571L282.306 13.9081" fill="white"/>
<path d="M297.473 28.7853C296.727 27.4466 295.482 26.4572 294.009 26.033C292.536 25.6088 290.955 25.7841 289.611 26.5207L289.356 26.6716L253.354 46.5889L258.986 56.7159L295.22 36.6593C296.557 35.911 297.544 34.6647 297.966 33.1921C298.388 31.7194 298.211 30.1396 297.473 28.7969" fill="white"/>
<path d="M286.313 45.0094L286.058 45.1603L253.063 63.4052C247.625 66.36 241.239 67.0413 235.299 65.3003C229.36 63.5593 224.352 59.5375 221.37 54.1144C218.502 48.7143 217.827 42.4165 219.483 36.5309C221.14 30.6452 225.002 25.6249 230.266 22.5139L230.626 22.3165L250.613 11.2604C251.392 10.966 252.099 10.5074 252.685 9.91572C253.272 9.32406 253.724 8.61316 254.011 7.83129C254.299 7.04942 254.414 6.21489 254.351 5.38433C254.287 4.55377 254.045 3.74664 253.642 3.01771C253.239 2.28879 252.684 1.65514 252.014 1.15979C251.344 0.664429 250.576 0.318957 249.761 0.146821C248.946 -0.0253156 248.103 -0.0200861 247.291 0.162154C246.478 0.344395 245.714 0.69938 245.05 1.20301L244.795 1.34237L225.052 12.2591C217.223 16.8796 211.503 24.3687 209.106 33.137C206.709 41.9054 207.822 51.2628 212.211 59.2236C216.599 67.1843 223.917 73.1218 232.611 75.7759C241.305 78.43 250.691 77.5919 258.777 73.4394L259.579 72.9864L291.922 55.0899C292.652 54.7586 293.306 54.2797 293.841 53.6836C294.377 53.0874 294.783 52.3868 295.035 51.6258C295.287 50.8649 295.378 50.0601 295.303 49.2621C295.229 48.4641 294.99 47.6901 294.601 46.989C294.213 46.2879 293.684 45.6748 293.047 45.1882C292.41 44.7017 291.679 44.3523 290.901 44.1619C290.122 43.9716 289.313 43.9445 288.523 44.0824C287.734 44.2202 286.981 44.52 286.313 44.9629" fill="white"/>
<path d="M174.904 116.479C174.363 117.355 173.61 118.08 172.715 118.587C171.82 119.095 170.811 119.368 169.782 119.383C169.169 119.421 168.555 119.325 167.982 119.103C167.41 118.881 166.892 118.537 166.465 118.096C166.037 117.654 165.711 117.125 165.508 116.546C165.305 115.966 165.23 115.349 165.288 114.737C165.288 109.627 172.419 108.721 176.286 108.315V109.697C176.286 112.182 176.356 114.261 174.904 116.468V116.479ZM186.669 103.472C186.669 99.2448 187.005 95.3427 183.417 92.4741C180.583 90.1514 175.88 89.292 172.279 89.292C164.882 89.292 156.578 91.7773 155.544 100.29L165.149 101.184C165.149 97.7002 167.994 96.0743 171.246 96.0743C172.012 96.0351 172.778 96.1633 173.49 96.4501C174.202 96.7369 174.843 97.1754 175.369 97.735C176.402 99.059 176.263 100.847 176.263 102.38V103.217C171.977 103.635 166.38 103.902 162.327 105.435C157.681 107.154 154.441 110.684 154.441 115.887C154.441 122.53 159.284 125.84 165.509 125.84C170.77 125.84 173.812 123.842 176.716 119.685C176.636 121.522 176.8 123.361 177.204 125.155H187.296C186.796 123.447 186.565 121.672 186.61 119.894L186.669 103.472Z" fill="white"/>
<path d="M1.0957 125.131H34.9841V115.933H12.1634V105.411H30.1412V96.4922H12.1634V86.8762H34.9841V77.6782H1.0957V125.131Z" fill="white"/>
<path d="M79.7309 89.3034C75.3758 89.3034 71.2994 91.2429 69.4993 95.3889C67.4205 91.2429 64.5171 89.3034 59.8833 89.3034C55.2495 89.3034 51.928 91.2429 50.1279 95.3889H50.0002V89.9886H40.3145V125.131H50.4763V106.55C50.4763 102.74 50.2673 97.491 55.5979 97.491C60.9285 97.491 60.162 102.88 60.162 106.55V125.131H70.3239V106.55C70.3239 104.68 70.3239 101.904 71.0207 100.255C71.4359 99.4272 72.075 98.7326 72.8655 98.2501C73.6559 97.7676 74.5659 97.5167 75.4919 97.5258C77.6404 97.5258 79.3012 98.1529 79.847 100.371C80.0918 102.413 80.1617 104.472 80.0561 106.526V125.108H90.2295V103.205C90.2295 99.7208 90.7057 95.6676 88.3598 92.892C87.2691 91.7148 85.9386 90.7853 84.458 90.1662C82.9775 89.5471 81.3813 89.2529 79.7773 89.3034" fill="white"/>
<path d="M112.586 118.732C111.721 118.741 110.869 118.521 110.117 118.094C109.364 117.668 108.738 117.051 108.3 116.305C107.369 114.494 106.967 112.457 107.139 110.428V105.342C107.139 101.614 107.824 96.2831 112.737 96.2831C118.346 96.2831 118.346 103.623 118.346 107.56C118.346 111.497 118.346 118.697 112.539 118.697L112.586 118.732ZM115.791 89.3034C114.015 89.1975 112.248 89.6281 110.719 90.5394C109.191 91.4506 107.972 92.8004 107.22 94.4134H106.941V77.6782H96.8145V125.131H102.354C102.981 123.261 103.388 121.252 104.677 119.731C107.243 123.958 109.659 125.816 114.711 125.816C125.291 125.816 128.961 116.758 128.961 107.56C128.961 99.2562 125.918 89.3034 115.884 89.3034" fill="white"/>
<path d="M144.012 96.5618H143.873V89.9885H134.373V125.131H144.547V111.764C144.547 105.539 145.51 99.2445 153.257 99.6626V89.4427L151.526 89.3033C147.102 88.9549 145.023 92.7874 143.989 96.5618" fill="white"/>
<path d="M209.629 97.0495C213.287 97.0495 214.948 100.162 214.948 103.344L224.633 102.787C223.948 94.5525 217.445 89.3032 209.28 89.3032C198.213 89.3032 191.709 97.1191 191.709 107.885C191.709 118.256 198.004 125.793 208.653 125.793C217.236 125.793 223.809 120.613 224.633 111.857L214.948 111.311C214.611 114.563 212.811 117.396 209.211 117.396C203.404 117.396 203.334 111.311 203.334 107.014C203.334 102.519 204.019 96.9914 209.629 96.9914" fill="white"/>
<path d="M244.969 119.046C239.162 119.046 239.232 110.463 239.232 106.457C239.232 102.45 239.58 96.0043 245.038 96.0043C246.087 95.9074 247.137 96.1696 248.017 96.7477C248.897 97.3258 249.554 98.1857 249.881 99.1864C250.748 102.009 251.14 104.957 251.043 107.908C251.043 112.124 250.764 119.046 245.027 119.046H244.969ZM245.027 89.3033C234.307 89.3033 228.361 97.2586 228.361 107.49C228.361 117.722 234.238 125.816 245.027 125.816C255.398 125.816 261.971 117.861 261.971 107.839C261.971 97.4676 256.025 89.2568 245.027 89.2568" fill="white"/>
<path d="M295.743 93.1822C294.719 91.8891 293.397 90.8623 291.891 90.1891C290.385 89.5158 288.738 89.2159 287.091 89.3148C281.97 89.3148 279.066 91.4517 276.999 95.9578H276.86V89.9884H267.244V125.131H277.406V106.247C277.264 104.108 277.663 101.967 278.567 100.023C278.975 99.2365 279.589 98.5767 280.345 98.1142C281.1 97.6517 281.967 97.404 282.852 97.3979C287.962 97.3979 287.498 102.647 287.498 106.247V125.131H297.66V103.414C297.66 100.232 297.66 95.8068 295.732 93.1705" fill="white"/>
<path d="M13.9401 65.4144C15.9228 65.4296 17.885 65.0125 19.6901 64.1922C21.4952 63.3718 23.0998 62.168 24.3923 60.6645L21.2218 57.9121C20.3321 58.9668 19.2142 59.8055 17.9528 60.3649C16.6913 60.9242 15.3192 61.1895 13.9401 61.1406C12.7096 61.1793 11.4841 60.9655 10.3394 60.5122C9.1947 60.059 8.15498 59.3761 7.28442 58.5055C6.41385 57.6349 5.73089 56.5952 5.27767 55.4505C4.82445 54.3058 4.61059 53.0803 4.64928 51.8498C4.61273 50.6165 4.82753 49.3887 5.28061 48.2412C5.73368 47.0936 6.41555 46.0502 7.28471 45.1745C8.15387 44.2988 9.19213 43.6092 10.3363 43.1475C11.4805 42.6859 12.7066 42.4619 13.9401 42.4893C15.3049 42.4541 16.6603 42.7235 17.9079 43.278C19.1555 43.8324 20.2637 44.658 21.1521 45.6946L24.3923 42.919C23.1112 41.4043 21.5079 40.195 19.6995 39.3792C17.8912 38.5634 15.9235 38.1619 13.9401 38.2039C12.1164 38.1648 10.303 38.4875 8.60462 39.1532C6.90629 39.819 5.3567 40.8147 4.04537 42.0828C2.72856 43.3346 1.68861 44.8484 0.992519 46.5266C0.296427 48.2048 -0.0403623 50.0102 0.00385254 51.8266C-0.0387298 53.6409 0.298853 55.4442 0.994896 57.1203C1.69094 58.7964 2.73003 60.3082 4.04537 61.5587C6.7055 64.0995 10.2623 65.4854 13.9401 65.4144Z" fill="white"/>
<path d="M42.2191 59.7121C41.0896 60.7993 39.5828 61.4067 38.015 61.4067C36.4473 61.4067 34.9405 60.7993 33.8109 59.7121C32.7167 58.5661 32.1197 57.0341 32.1502 55.4499C32.1288 54.6698 32.2648 53.8934 32.5501 53.1671C32.8355 52.4408 33.2643 51.7794 33.8109 51.2225C34.926 50.1077 36.4382 49.4814 38.015 49.4814C39.5918 49.4814 41.1041 50.1077 42.2191 51.2225C42.7792 51.7719 43.2199 52.4308 43.5136 53.1582C43.8074 53.8856 43.9479 54.6657 43.9263 55.4499C43.9464 56.2391 43.8054 57.024 43.5119 57.7569C43.2184 58.4897 42.7785 59.155 42.2191 59.7121ZM48.4092 55.4499C48.4368 54.1105 48.1823 52.7803 47.662 51.5457C47.1418 50.3112 46.3676 49.2 45.3897 48.2843C44.4198 47.3339 43.27 46.5866 42.0077 46.086C40.7454 45.5855 39.3959 45.3418 38.0383 45.3693C36.6789 45.3416 35.3275 45.5851 34.0633 46.0856C32.7991 46.5861 31.6473 47.3336 30.6753 48.2843C29.7194 49.2169 28.9598 50.3313 28.4411 51.5619C27.9225 52.7925 27.6553 54.1144 27.6553 55.4499C27.6553 56.7853 27.9225 58.1073 28.4411 59.3379C28.9598 60.5685 29.7194 61.6829 30.6753 62.6154C31.6479 63.5646 32.8 64.3103 34.0643 64.8089C35.3286 65.3074 36.6796 65.5488 38.0383 65.5188C39.3952 65.5485 40.7444 65.307 42.0067 64.8084C43.2691 64.3099 44.4192 63.5643 45.3897 62.6154C46.367 61.6994 47.1408 60.588 47.661 59.3536C48.1812 58.1192 48.4361 56.7892 48.4092 55.4499Z" fill="white"/>
<path d="M57.9556 54.01C57.9309 53.4239 58.0282 52.839 58.2413 52.2925C58.4544 51.7459 58.7786 51.2495 59.1934 50.8347C59.6082 50.4199 60.1046 50.0957 60.6512 49.8826C61.1977 49.6695 61.7826 49.5722 62.3687 49.5969C62.9248 49.5614 63.4819 49.648 64.001 49.8506C64.5201 50.0532 64.9886 50.3668 65.3737 50.7696C65.7587 51.1724 66.051 51.6545 66.2301 52.1821C66.4092 52.7098 66.4706 53.2703 66.4102 53.8242V64.9616H70.9395V53.1855C70.9395 48.4703 68.2568 45.567 63.7275 45.567C62.5671 45.4842 61.4069 45.7301 60.3798 46.2765C59.3528 46.8229 58.5005 47.6476 57.9207 48.6562V45.9386H53.4263V64.9616H57.9556V54.01Z" fill="white"/>
<path d="M85.7237 53.7543C84.9688 53.4871 83.912 53.1039 83.401 52.9529C82.8718 52.7629 82.3558 52.5379 81.8564 52.2793C81.602 52.1622 81.3855 51.976 81.2315 51.742C81.0775 51.5079 80.9923 51.2354 80.9854 50.9554C80.9854 49.9334 81.8912 49.2598 83.3081 49.2598C84.0057 49.2135 84.7043 49.3336 85.3464 49.6103C85.9885 49.8869 86.5557 50.3121 87.0012 50.8509L89.4284 48.1681C88.702 47.2423 87.7636 46.5048 86.6923 46.0177C85.6211 45.5306 84.4485 45.3082 83.2733 45.3693C81.5442 45.3285 79.8527 45.8773 78.4769 46.9255C77.8662 47.4227 77.3825 48.0579 77.0655 48.7788C76.7485 49.4996 76.6073 50.2854 76.6535 51.0715C76.6535 53.7891 78.2678 55.3337 81.299 56.4254C81.9377 56.6925 83.0642 57.0293 83.6217 57.2267C84.235 57.4062 84.83 57.6434 85.3985 57.9351C85.7002 58.0643 85.961 58.273 86.1533 58.5389C86.3456 58.8048 86.462 59.118 86.4902 59.4449C86.4902 60.6063 85.4682 61.5237 83.0991 61.5237C82.1297 61.5711 81.1636 61.3786 80.2864 60.9634C79.4093 60.5481 78.6481 59.9228 78.0704 59.1429L75.167 61.5934C76.3283 63.9742 79.2085 65.4491 83.0178 65.4491C88.1858 65.4491 90.8337 62.9174 90.8337 59.4101C90.8337 56.6925 89.2426 54.9969 85.7353 53.7543" fill="white"/>
<path d="M124.885 48.7722V45.9385H120.39V64.9615H124.885V54.9622C124.833 54.2714 124.932 53.5775 125.176 52.929C125.42 52.2805 125.802 51.693 126.296 51.2076C126.791 50.7221 127.385 50.3504 128.038 50.1183C128.69 49.8862 129.386 49.7994 130.076 49.8639C130.707 49.8681 131.337 49.9303 131.957 50.0497V45.6714C131.489 45.5919 131.015 45.5569 130.54 45.5669C129.387 45.4854 128.235 45.746 127.229 46.3162C126.223 46.8864 125.407 47.7407 124.885 48.7722Z" fill="white"/>
<path d="M145.255 65.4843C146.687 65.5176 148.11 65.2423 149.426 64.6772C150.743 64.1121 151.922 63.2704 152.885 62.2092L150.086 59.2942C149.476 59.9656 148.729 60.4985 147.896 60.8571C147.062 61.2157 146.162 61.3916 145.255 61.3731C144.479 61.3911 143.708 61.2499 142.989 60.9583C142.27 60.6666 141.618 60.2307 141.074 59.6775C140.005 58.5156 139.411 56.9943 139.411 55.4153C139.411 53.8363 140.005 52.315 141.074 51.1531C141.616 50.5961 142.267 50.1569 142.986 49.8632C143.706 49.5694 144.478 49.4274 145.255 49.4459C146.161 49.4296 147.061 49.6066 147.894 49.965C148.727 50.3234 149.474 50.8552 150.086 51.5248L152.885 48.6214C151.924 47.5568 150.745 46.7121 149.429 46.1449C148.112 45.5777 146.688 45.3014 145.255 45.3347C143.898 45.3077 142.55 45.5504 141.288 46.0488C140.026 46.5472 138.875 47.2914 137.903 48.2381C136.957 49.1811 136.207 50.3015 135.695 51.5351C135.183 52.7687 134.919 54.0912 134.919 55.4269C134.919 56.7626 135.183 58.0852 135.695 59.3188C136.207 60.5524 136.957 61.6728 137.903 62.6157C138.876 63.5599 140.027 64.3001 141.289 64.7927C142.552 65.2853 143.9 65.5205 145.255 65.4843Z" fill="white"/>
<path d="M159.783 38.355C159.253 38.355 158.734 38.5123 158.293 38.8071C157.852 39.1019 157.508 39.5209 157.305 40.0111C157.102 40.5013 157.049 41.0407 157.152 41.5611C157.256 42.0815 157.511 42.5595 157.886 42.9347C158.262 43.3099 158.74 43.5654 159.26 43.6689C159.78 43.7724 160.32 43.7193 160.81 43.5162C161.3 43.3132 161.719 42.9693 162.014 42.5282C162.309 42.087 162.466 41.5683 162.466 41.0377C162.466 40.3262 162.183 39.6438 161.68 39.1407C161.177 38.6376 160.495 38.355 159.783 38.355Z" fill="white"/>
<path d="M162.048 45.9385H157.519V64.9615H162.048V45.9385Z" fill="white"/>
<path d="M181.663 59.7123C180.533 60.7995 179.027 61.4069 177.459 61.4069C175.891 61.4069 174.384 60.7995 173.255 59.7123C172.16 58.5663 171.564 57.0343 171.594 55.4501C171.573 54.67 171.709 53.8936 171.994 53.1673C172.279 52.441 172.708 51.7796 173.255 51.2227C174.373 50.1136 175.884 49.4912 177.459 49.4912C179.034 49.4912 180.545 50.1136 181.663 51.2227C182.221 51.7726 182.66 52.4319 182.952 53.1594C183.244 53.8868 183.382 54.6667 183.359 55.4501C183.38 56.2384 183.241 57.0229 182.949 57.7557C182.658 58.4885 182.22 59.1542 181.663 59.7123ZM177.482 45.3695C176.123 45.3405 174.771 45.5834 173.506 46.084C172.242 46.5845 171.09 47.3327 170.119 48.2845C169.163 49.2171 168.404 50.3315 167.885 51.5621C167.366 52.7927 167.099 54.1146 167.099 55.4501C167.099 56.7855 167.366 58.1075 167.885 59.3381C168.404 60.5687 169.163 61.6831 170.119 62.6157C172.115 64.4803 174.745 65.5175 177.476 65.5175C180.208 65.5175 182.837 64.4803 184.833 62.6157C185.789 61.6831 186.549 60.5687 187.068 59.3381C187.586 58.1075 187.854 56.7855 187.854 55.4501C187.854 54.1146 187.586 52.7927 187.068 51.5621C186.549 50.3315 185.789 49.2171 184.833 48.2845C183.864 47.3341 182.714 46.5868 181.452 46.0862C180.189 45.5857 178.84 45.342 177.482 45.3695Z" fill="white"/>
<path d="M110.251 38.6567H105.118L103.539 43.1512H107.243L110.251 38.6567Z" fill="white"/>
<path d="M100.74 51.2226C101.858 50.1134 103.369 49.4911 104.944 49.4911C106.519 49.4911 108.03 50.1134 109.148 51.2226C109.708 51.7719 110.149 52.4309 110.443 53.1583C110.736 53.8856 110.877 54.6658 110.855 55.45C110.878 56.2375 110.741 57.0215 110.452 57.7542C110.162 58.4869 109.726 59.1531 109.171 59.7121C108.042 60.7994 106.535 61.4067 104.967 61.4067C103.399 61.4067 101.893 60.7994 100.763 59.7121C99.6688 58.5662 99.0718 57.0342 99.1023 55.45C99.0809 54.6699 99.2169 53.8935 99.5023 53.1672C99.7876 52.4409 100.216 51.7795 100.763 51.2226H100.74ZM104.99 65.5189C106.347 65.5486 107.697 65.3071 108.959 64.8085C110.221 64.3099 111.371 63.5644 112.342 62.6155C113.298 61.683 114.057 60.5686 114.576 59.338C115.095 58.1073 115.362 56.7854 115.362 55.45C115.362 54.1145 115.095 52.7926 114.576 51.562C114.057 50.3314 113.298 49.217 112.342 48.2844C110.35 46.412 107.719 45.3696 104.985 45.3696C102.251 45.3696 99.6196 46.412 97.6274 48.2844C96.6715 49.217 95.9119 50.3314 95.3933 51.562C94.8746 52.7926 94.6074 54.1145 94.6074 55.45C94.6074 56.7854 94.8746 58.1073 95.3933 59.338C95.9119 60.5686 96.6715 61.683 97.6274 62.6155C98.6 63.5647 99.7522 64.3104 101.016 64.8089C102.281 65.3075 103.632 65.5488 104.99 65.5189Z" fill="white"/>
<path d="M6.85184 152.892C6.6732 152.99 6.47458 153.046 6.27116 153.055H4.12265V150.535H6.25954C6.46622 150.537 6.66936 150.589 6.85184 150.686C7.17702 150.813 7.37445 151.22 7.37445 151.847C7.39611 152.059 7.35879 152.274 7.26659 152.466C7.1744 152.659 7.03089 152.822 6.85184 152.939V152.892ZM6.39891 147.713H0.952148V159.326H4.12265V155.958H6.44536C7.49741 155.951 8.50525 155.534 9.25584 154.797C9.66043 154.414 9.97695 153.948 10.1835 153.43C10.39 152.913 10.4817 152.357 10.452 151.801C10.4738 151.206 10.3608 150.614 10.1215 150.069C9.88215 149.524 9.52271 149.04 9.07003 148.653C8.32393 148.015 7.38041 147.654 6.39891 147.631" fill="white"/>
<path d="M19.9987 155.761C19.6285 156.121 19.1756 156.385 18.6797 156.529C18.1839 156.673 17.6602 156.694 17.1546 156.589C16.6489 156.484 16.1767 156.257 15.7793 155.927C15.3819 155.597 15.0714 155.175 14.875 154.697C14.6786 154.22 14.6023 153.701 14.6529 153.187C14.7034 152.673 14.8791 152.179 15.1647 151.749C15.4503 151.319 15.8371 150.965 16.2911 150.719C16.7451 150.473 17.2525 150.342 17.7689 150.337C18.1867 150.33 18.6011 150.412 18.9853 150.576C19.3695 150.74 19.7148 150.983 19.9987 151.29C20.3024 151.576 20.5437 151.921 20.7076 152.305C20.8714 152.689 20.9543 153.102 20.9511 153.519C20.9532 153.938 20.8698 154.353 20.706 154.738C20.5423 155.124 20.3016 155.472 19.9987 155.761ZM17.7689 147.492C16.933 147.472 16.1015 147.618 15.3222 147.921C14.5429 148.224 13.8312 148.678 13.228 149.257C12.6442 149.801 12.1785 150.459 11.8602 151.19C11.5418 151.921 11.3774 152.71 11.3774 153.508C11.3774 154.305 11.5418 155.094 11.8602 155.826C12.1785 156.557 12.6442 157.215 13.228 157.758C14.4502 158.92 16.0829 159.551 17.7689 159.512C19.4549 159.551 21.0877 158.92 22.3098 157.758C22.9049 157.222 23.3801 156.566 23.7043 155.834C24.0285 155.101 24.1945 154.309 24.1912 153.508C24.1997 152.706 24.0361 151.912 23.7115 151.178C23.387 150.445 22.909 149.79 22.3098 149.257C21.7067 148.678 20.995 148.224 20.2157 147.921C19.4364 147.618 18.6048 147.472 17.7689 147.492Z" fill="white"/>
<path d="M30.5788 153.136H28.8136V150.535H30.8459C31.0045 150.534 31.1614 150.567 31.3071 150.629C31.4527 150.692 31.584 150.784 31.6928 150.899C31.8016 151.014 31.8856 151.151 31.9397 151.3C31.9938 151.449 32.0168 151.607 32.0073 151.766C32.0253 151.95 32.0023 152.136 31.9398 152.311C31.8773 152.485 31.7769 152.644 31.6459 152.775C31.5148 152.906 31.3564 153.006 31.1819 153.069C31.0075 153.131 30.8213 153.154 30.6369 153.136H30.5788ZM35.1546 151.673C35.1719 151.145 35.0774 150.62 34.8773 150.132C34.6771 149.643 34.3758 149.203 33.9932 148.839C33.6011 148.459 33.1374 148.161 32.629 147.961C32.1206 147.762 31.5777 147.666 31.0318 147.678H25.6431V159.291H28.8136V155.621H29.9749L32.2976 159.245H36.0024L33.1106 154.948C33.7222 154.64 34.2331 154.164 34.5829 153.576C34.9328 152.987 35.1069 152.311 35.0849 151.626" fill="white"/>
<path d="M45.4902 154.82L44.2127 153.392L42.1222 155.192L43.3649 156.562C43.112 156.608 42.8552 156.627 42.5984 156.621C42.1842 156.627 41.7729 156.551 41.3882 156.398C41.0035 156.244 40.653 156.016 40.357 155.726C39.9161 155.284 39.6162 154.721 39.4953 154.108C39.3745 153.495 39.438 152.86 39.6779 152.283C39.9178 151.707 40.3233 151.214 40.8431 150.868C41.3629 150.521 41.9738 150.337 42.5984 150.338C43.4296 150.352 44.2227 150.688 44.8116 151.275C45.4005 151.862 45.7394 152.654 45.7573 153.485C45.7772 153.945 45.6856 154.403 45.4902 154.82ZM47.1277 149.246C45.8856 148.125 44.2717 147.504 42.5984 147.504C40.925 147.504 39.3112 148.125 38.0691 149.246C37.4889 149.789 37.0265 150.446 36.7103 151.175C36.3941 151.904 36.231 152.69 36.231 153.485C36.231 154.28 36.3941 155.066 36.7103 155.795C37.0265 156.524 37.4889 157.181 38.0691 157.724C39.2968 158.867 40.9212 159.488 42.5984 159.454C43.581 159.465 44.5533 159.254 45.4437 158.839L46.4657 160L48.5445 158.188L47.5922 157.12C48.5045 156.144 49.0075 154.855 48.9975 153.52C49.0072 152.721 48.8453 151.929 48.5228 151.197C48.2002 150.466 47.7245 149.812 47.1277 149.281" fill="white"/>
<path d="M57.5919 153.949C57.5919 155.877 56.8602 156.586 55.5363 156.586C54.2123 156.586 53.4923 155.877 53.4923 153.949V147.667H50.3218V154.286C50.2746 154.998 50.3832 155.712 50.6399 156.378C50.8966 157.044 51.2953 157.646 51.8083 158.142C52.8675 158.991 54.1845 159.454 55.5421 159.454C56.8996 159.454 58.2166 158.991 59.2758 158.142C59.7888 157.646 60.1875 157.044 60.4442 156.378C60.7009 155.712 60.8095 154.998 60.7624 154.286V147.667H57.5919V153.949Z" fill="white"/>
<path d="M65.7096 154.716H70.7382V152.114H65.7096V150.523H71.1099V147.667H62.5391V159.292H71.2376V156.493H65.7096V154.716Z" fill="white"/>
<path d="M83.734 152.417C83.0651 152.172 82.3827 151.967 81.69 151.801C81.4904 151.755 81.2959 151.688 81.1094 151.604C80.9632 151.566 80.8352 151.477 80.748 151.354C80.6608 151.231 80.6202 151.08 80.6332 150.93C80.6332 150.523 81.0861 150.222 81.8991 150.222C82.2965 150.202 82.6931 150.274 83.0578 150.434C83.4224 150.593 83.7453 150.834 84.0012 151.139L86.0916 149.351C85.5747 148.718 84.9135 148.22 84.1637 147.896C83.414 147.573 82.5974 147.434 81.783 147.492C80.7238 147.453 79.6829 147.776 78.8331 148.41C78.4462 148.712 78.1384 149.103 77.9362 149.55C77.7339 149.997 77.6431 150.487 77.6718 150.976C77.6826 151.755 77.9539 152.507 78.4423 153.113C78.9306 153.72 79.6079 154.145 80.3661 154.321C80.9119 154.53 81.7481 154.774 82.201 154.913L82.8746 155.146C83.3276 155.331 83.525 155.541 83.525 155.866C83.525 156.412 83.014 156.702 81.9804 156.702C81.401 156.724 80.825 156.605 80.3014 156.356C79.7777 156.108 79.3218 155.736 78.9725 155.273L76.7427 156.992C77.2327 157.721 77.8897 158.322 78.6589 158.746C79.6527 159.254 80.7605 159.498 81.8759 159.454C84.9651 159.454 86.5213 158.026 86.5213 155.773C86.5213 154.193 85.7083 153.137 83.6992 152.417" fill="white"/>
<path d="M95.9747 155.761C95.5323 156.202 94.969 156.502 94.3562 156.622C93.7434 156.743 93.1085 156.68 92.5317 156.44C91.955 156.2 91.4623 155.795 91.116 155.275C90.7697 154.755 90.5853 154.144 90.586 153.519C90.5799 153.103 90.6603 152.69 90.8222 152.306C90.9842 151.922 91.2241 151.576 91.5267 151.29C91.8106 150.983 92.1559 150.74 92.5401 150.576C92.9243 150.412 93.3388 150.33 93.7565 150.337C94.1758 150.332 94.5916 150.414 94.9775 150.577C95.3634 150.741 95.7109 150.984 95.9979 151.29C96.2978 151.578 96.5359 151.924 96.6976 152.308C96.8593 152.691 96.9413 153.103 96.9386 153.519C96.9402 153.937 96.8578 154.351 96.6962 154.736C96.5345 155.121 96.2971 155.469 95.9979 155.761H95.9747ZM93.7333 147.492C92.8974 147.472 92.0659 147.618 91.2865 147.921C90.5072 148.224 89.7955 148.678 89.1924 149.257C88.6085 149.801 88.1429 150.459 87.8245 151.19C87.5061 151.921 87.3418 152.71 87.3418 153.508C87.3418 154.305 87.5061 155.094 87.8245 155.826C88.1429 156.557 88.6085 157.215 89.1924 157.758C90.4359 158.886 92.0545 159.511 93.7333 159.511C95.412 159.511 97.0307 158.886 98.2742 157.758C98.8693 157.222 99.3445 156.566 99.6687 155.834C99.9929 155.101 100.159 154.309 100.156 153.508C100.164 152.706 100 151.912 99.6759 151.178C99.3514 150.445 98.8734 149.79 98.2742 149.257C97.6711 148.678 96.9594 148.224 96.18 147.921C95.4007 147.618 94.5692 147.472 93.7333 147.492Z" fill="white"/>
<path d="M109.318 153.903L104.441 147.667H101.607V159.292H104.65V152.8L109.771 159.292H112.349V147.667H109.318V153.903Z" fill="white"/>
<path d="M121.803 151.708H117.425V147.667H114.254V159.292H117.425V154.6H121.803V159.292H124.962V147.667H121.803V151.708Z" fill="white"/>
<path d="M130.804 155.32L132.209 151.72L133.614 155.32H130.804ZM130.804 147.667L126.065 159.28H129.399L130.026 157.759H134.485L135.089 159.28H138.445L133.707 147.667H130.804Z" fill="white"/>
<path d="M144.391 153.136H142.626V150.535H144.659C144.817 150.535 144.974 150.567 145.12 150.629C145.265 150.692 145.397 150.784 145.505 150.899C145.614 151.015 145.698 151.151 145.752 151.3C145.806 151.449 145.829 151.608 145.82 151.766C145.838 151.95 145.815 152.137 145.752 152.311C145.69 152.485 145.589 152.644 145.458 152.775C145.327 152.906 145.169 153.006 144.995 153.069C144.82 153.131 144.634 153.154 144.449 153.136H144.391ZM148.967 151.673C148.986 151.145 148.892 150.62 148.692 150.131C148.492 149.642 148.19 149.202 147.806 148.839C147.417 148.459 146.955 148.16 146.448 147.96C145.942 147.761 145.4 147.665 144.856 147.678H139.572V159.292H142.742V155.622H143.904L146.226 159.245H149.815L146.912 154.948C147.526 154.643 148.04 154.168 148.392 153.579C148.745 152.99 148.92 152.312 148.897 151.627" fill="white"/>
<path d="M163.507 153.903L158.641 147.667H155.808V159.292H158.839V152.8L163.96 159.292H166.55V147.667H163.507V153.903Z" fill="white"/>
<path d="M172.392 155.32L173.785 151.72L175.19 155.32H172.392ZM172.334 147.667L167.595 159.28H170.94L171.555 157.759H176.027L176.619 159.28H180.01L175.272 147.667H172.334Z" fill="white"/>
<path d="M172.369 146.331C172.805 146.374 173.23 146.496 173.623 146.691C174.098 146.922 174.617 147.048 175.144 147.063C176.573 147.063 177.409 146.192 177.641 144.473L176.004 144.206C175.888 144.682 175.644 144.914 175.272 144.914C174.834 144.871 174.409 144.744 174.018 144.543C173.557 144.318 173.055 144.192 172.543 144.171C171.891 144.183 171.268 144.447 170.807 144.909C170.346 145.37 170.081 145.992 170.069 146.645L171.707 146.912C171.71 146.829 171.729 146.748 171.765 146.674C171.8 146.599 171.85 146.533 171.912 146.478C171.974 146.424 172.047 146.383 172.125 146.357C172.204 146.332 172.287 146.323 172.369 146.331Z" fill="white"/>
<path d="M188.465 155.761C188.095 156.121 187.642 156.385 187.146 156.529C186.65 156.673 186.127 156.694 185.621 156.589C185.115 156.484 184.643 156.257 184.246 155.927C183.848 155.597 183.538 155.175 183.341 154.697C183.145 154.22 183.069 153.701 183.119 153.187C183.17 152.673 183.345 152.179 183.631 151.749C183.917 151.319 184.303 150.965 184.757 150.719C185.211 150.473 185.719 150.342 186.235 150.337C186.653 150.33 187.067 150.412 187.452 150.576C187.836 150.74 188.181 150.983 188.465 151.29C188.769 151.576 189.01 151.921 189.174 152.305C189.338 152.689 189.421 153.102 189.417 153.519C189.419 153.938 189.336 154.353 189.172 154.738C189.009 155.124 188.768 155.472 188.465 155.761ZM186.235 147.492C185.399 147.472 184.568 147.618 183.788 147.921C183.009 148.224 182.297 148.678 181.694 149.257C181.11 149.801 180.645 150.459 180.326 151.19C180.008 151.921 179.844 152.71 179.844 153.508C179.844 154.305 180.008 155.094 180.326 155.826C180.645 156.557 181.11 157.215 181.694 157.758C182.938 158.886 184.556 159.511 186.235 159.511C187.914 159.511 189.533 158.886 190.776 157.758C191.371 157.222 191.846 156.566 192.171 155.834C192.495 155.101 192.661 154.309 192.658 153.508C192.666 152.706 192.502 151.912 192.178 151.178C191.853 150.445 191.375 149.79 190.776 149.257C190.173 148.678 189.461 148.224 188.682 147.921C187.903 147.618 187.071 147.472 186.235 147.492Z" fill="white"/>
<path d="M196.583 150.535H199.718V159.292H202.889V150.535H205.955V147.667H196.583V150.535Z" fill="white"/>
<path d="M210.159 154.716H215.199V152.114H210.159V150.523H215.571V147.667H206.988V159.292H215.698V156.493H210.159V154.716Z" fill="white"/>
<path d="M223.689 152.951L219.926 147.667H217.325V159.292H220.251V153.136L223.689 157.886L227.127 153.136V159.292H230.065V147.667H227.463L223.689 152.951Z" fill="white"/>
<path d="M240.145 147.667H236.975V159.292H244.57V156.423H240.145V147.667Z" fill="white"/>
<path d="M249.087 147.667H245.917V159.292H249.087V147.667Z" fill="white"/>
<path d="M257.426 152.951L253.663 147.667H251.062V159.292H253.989V153.136L257.426 157.886L260.864 153.136V159.292H263.802V147.667H261.201L257.426 152.951Z" fill="white"/>
<path d="M268.947 147.667H265.776V159.292H268.947V147.667Z" fill="white"/>
<path d="M270.05 150.535H273.174V159.292H276.345V150.535H279.422V147.667H270.05V150.535Z" fill="white"/>
<path d="M283.627 154.716H288.667V152.114H283.627V150.523H289.027V147.667H280.456V159.292H289.166V156.493H283.627V154.716Z" fill="white"/>
<path d="M296.819 152.416C296.15 152.172 295.468 151.966 294.775 151.801C294.572 151.754 294.374 151.688 294.183 151.603C294.039 151.563 293.914 151.474 293.829 151.351C293.744 151.227 293.705 151.078 293.719 150.93C293.719 150.523 294.171 150.221 294.984 150.221C295.382 150.202 295.778 150.275 296.143 150.434C296.507 150.594 296.83 150.835 297.086 151.139L299.177 149.35C298.659 148.719 297.998 148.221 297.248 147.897C296.499 147.574 295.683 147.435 294.868 147.492C293.809 147.452 292.768 147.776 291.918 148.409C291.521 148.705 291.202 149.094 290.989 149.541C290.777 149.988 290.677 150.481 290.699 150.976C290.709 151.753 290.979 152.504 291.465 153.11C291.951 153.716 292.626 154.142 293.382 154.321C293.939 154.53 294.775 154.774 295.217 154.913L295.902 155.145C296.355 155.331 296.552 155.54 296.552 155.865C296.552 156.411 296.041 156.701 295.008 156.701C294.445 156.705 293.889 156.577 293.385 156.327C292.88 156.077 292.442 155.712 292.104 155.261L289.863 156.98C290.359 157.704 291.015 158.304 291.779 158.734C292.777 159.241 293.889 159.485 295.008 159.442C298.085 159.442 299.653 158.014 299.653 155.761C299.653 154.181 298.84 153.125 296.831 152.404" fill="white"/>
</svg>
